<?xml version="1.0" standalone="no"?>
<!DOCTYPE svg PUBLIC "-//W3C//DTD SVG 1.1//EN" "http://www.w3.org/Graphics/SVG/1.1/DTD/svg11.dtd" >
<svg xmlns="http://www.w3.org/2000/svg" xmlns:xlink="http://www.w3.org/1999/xlink" version="1.1">
<metadata></metadata>
<defs>
<font id="dicotboldbold" horiz-adv-x="1116" >
<font-face units-per-em="2048" ascent="1638" descent="-410" />
<missing-glyph horiz-adv-x="593" />
<glyph unicode="&#xd;" horiz-adv-x="593" />
<glyph unicode=" "  horiz-adv-x="593" />
<glyph unicode="&#x09;" horiz-adv-x="593" />
<glyph unicode="&#xa0;" horiz-adv-x="593" />
<glyph unicode="!" horiz-adv-x="542" d="M96 170q0 74 51.5 127t124.5 53q74 0 124 -52t50 -124q0 -74 -53 -123q-49 -51 -121 -51q-70 0 -123 49t-53 121zM111 403h321v1072h-321v-1072z" />
<glyph unicode="&#x22;" horiz-adv-x="743" d="M78 983l43 492h221l-43 -492h-221zM395 983l43 492h221l-43 -492h-221z" />
<glyph unicode="$" horiz-adv-x="1075" d="M66 0v315h442v271h-148q-209 0 -274 182q-20 53 -20 100v318q0 35 10 76q47 186 246 211l43 2h143v116h74v-116h426v-314h-426v-264h135q135 0 197.5 -51t91.5 -189q2 -12 2 -16q2 -14 2 -31v-301l-4 -63q-39 -207 -263 -242l-45 -4h-116v-160h-74v160h-442zM381 989 q0 -92 106 -92h21v264h-53q-57 0 -72 -63l-2 -17v-92zM582 315h34q53 0 70 25q10 16 10 68v100q0 78 -69 78h-45v-271z" />
<glyph unicode="%" horiz-adv-x="1882" d="M51 961v278l4 35q16 90 65.5 135t143.5 61l39 5h229l39 -5q96 -16 144.5 -60t64.5 -136l4 -35v-278l-4 -35q-16 -90 -65 -136.5t-144 -62.5l-39 -4h-229l-39 4q-94 16 -143 61.5t-66 137.5q-6 29 -4 35zM299 1061q0 -35 18 -60q27 -23 54 -22h94q27 0 53 22q18 25 19 60 v76q0 39 -21.5 61.5t-50.5 22.5h-94q-29 0 -50.5 -22.5t-21.5 -61.5v-76zM391 0h293l823 1475h-286zM1098 238v278l4 35q18 90 66.5 136t144.5 63l37 2h229l39 -2q96 -16 144 -61.5t67 -137.5l2 -35v-278l-2 -35q-18 -92 -66.5 -137.5t-144.5 -61.5l-39 -2h-229l-37 2 q-94 14 -143.5 60.5t-67.5 138.5zM1346 340q0 -18 4 -32.5t16 -26.5q23 -25 51 -25h94q29 0 50.5 22.5t21.5 61.5v74q0 39 -21.5 61.5t-50.5 22.5h-94q-29 0 -50 -22.5t-21 -61.5v-74z" />
<glyph unicode="&#x26;" horiz-adv-x="1441" d="M66 313l4 199q16 98 54 151.5t120 102.5l30 18l-65 103q-8 12 -14.5 33.5t-10.5 37t-6 35t-2 33.5v135q0 147 86 230.5t236 83.5h198q102 0 163 -31t106 -105.5t45 -142.5v-152q0 -61 -10.5 -90.5t-53.5 -94t-64.5 -84t-68.5 -42.5l-59 -26l147 -162l2 53v100h324 l-2 -215q0 -80 -43 -172l-27 -47l236 -264h-416l-45 53q-94 -53 -225 -53h-283q-119 0 -198 45t-124 133q-14 29 -21 66t-13 69zM379 385q10 -68 82 -80l22 -2l189 -2q8 0 20 4q4 0 13 6l-230 252l-51 -24q-45 -20 -45 -78v-76zM487 1065l7 -43l4 -12l57 -84l72 32 q25 10 39 24.5t20 31.5q16 35 14 49q-2 29 -4 43q-8 45 -23.5 53t-27.5 17q-12 6 -20 6l-62 -4t-39 -7q-37 -23 -37 -63v-43z" />
<glyph unicode="'" horiz-adv-x="419" d="M78 983l43 492h221l-43 -492h-221z" />
<glyph unicode="(" horiz-adv-x="630" d="M96 303v80v709v79q0 41 20.5 109t78.5 150l36 45h349l-11 -13l-30 -32q-68 -80 -94.5 -154t-26.5 -189v-700q0 -119 24.5 -187.5t96.5 -154.5l30 -33l11 -12h-349l-36 45q-51 76 -75 133.5t-24 124.5z" />
<glyph unicode=")" horiz-adv-x="630" d="M51 0l10 12l29 33q70 80 96.5 153.5t26.5 188.5v700q0 119 -24.5 187.5t-98.5 155.5l-29 32l-10 13h348l35 -45q47 -66 70.5 -127.5t30.5 -131.5v-79v-709v-80q0 -45 -21 -106q-10 -33 -31.5 -74t-48.5 -78l-35 -45h-348z" />
<glyph unicode="*" horiz-adv-x="901" d="M66 1190l137 223l235 -280l-116 342h266l-127 -342l246 278l129 -231l-361 -70l361 -72l-131 -223l-244 277l121 -342l-263 -2l119 346l-237 -271l-133 224l360 63z" />
<glyph unicode="," horiz-adv-x="458" d="M51 -219l103 219q-47 23 -74 66t-27 98q0 78 54.5 128t121.5 50q72 0 125.5 -53t53.5 -135q0 -29 -5 -43l-18 -50l-133 -278z" />
<glyph unicode="-" horiz-adv-x="661" d="M51 520v271h559v-271h-559z" />
<glyph unicode="." horiz-adv-x="452" d="M51 170q0 74 51.5 127t124.5 53q74 0 124 -52t50 -124q0 -74 -53 -123q-49 -51 -121 -51q-70 0 -123 49t-53 121z" />
<glyph unicode="/" horiz-adv-x="1218" d="M51 0l830 1475h286l-825 -1475h-291z" />
<glyph unicode="0" horiz-adv-x="1245" d="M104 317v840q0 162 107 250q41 35 93 51.5t130 16.5h377q84 0 131 -14.5t92 -53.5q106 -88 107 -250v-840q0 -317 -332 -317h-375h-57q-136 9 -195 68q-53 53 -71 155q-4 33 -7 94zM422 420q0 -59 21.5 -81t82.5 -22h193q61 0 82.5 21.5t21.5 81.5v635q0 59 -21.5 80.5 t-82.5 21.5h-193q-61 0 -82.5 -21.5t-21.5 -80.5v-635z" />
<glyph unicode="1" horiz-adv-x="1243" d="M463 0v1475h317v-1475h-317z" />
<glyph unicode="2" horiz-adv-x="1243" d="M143 0v555q0 143 81 230t212 87h223l13 2h37q74 0 73 84v111q0 76 -71 88h-41h-527v318h621q289 0 332 -252q6 -37 4 -68l-2 -336q0 -78 -56 -155q-84 -115 -245 -115h-226h-14l-25 -2q-72 -8 -71 -86v-144h639v-317h-957z" />
<glyph unicode="3" horiz-adv-x="1243" d="M127 0v326h545h39l20 4q29 12 37 37v34v101q0 66 -68 78l-18 2h-240v311h240l18 2q68 12 68 78v100v35q0 23 -37 37l-16 4h-43h-545v326h631q96 0 144 -14.5t97 -63.5q86 -80 86 -197v-235q0 -31 -12 -69t-35 -69q-43 -61 -114 -90l39 -20q123 -74 122 -205v-238 q0 -113 -86 -196q-47 -45 -97 -61.5t-144 -16.5h-631z" />
<glyph unicode="4" horiz-adv-x="1245" d="M74 633q0 47 20 94l307 748h342l-307 -750h342v750h318l-2 -1475h-316v408h-416q-98 0 -147 18t-92 72q-49 61 -49 135z" />
<glyph unicode="5" horiz-adv-x="1241" d="M137 0v328h543h16l11 2q31 0 47 18.5t16 48.5v140l-2 14q-8 63 -66 76l-18 2h-547v846h953v-328h-633v-199h315l57 -4q133 -23 194.5 -97.5t61.5 -215.5v-320q0 -143 -83.5 -227t-225.5 -84h-639z" />
<glyph unicode="6" horiz-adv-x="1245" d="M96 340v807q0 174 81 251t267 77h621v-326h-586l-18 -4q-47 -16 -47 -72v-123h452q147 0 215 -71.5t68 -235.5v-344q0 -16 -3 -36.5t-5 -31.5q-49 -231 -301 -231h-414q-14 -4 -32.5 -6t-49.5 -2q-51 0 -97 12t-77 45q-49 51 -66 176q-4 41 -8 115zM414 430 q0 -102 104 -102h221h15q78 10 77 82v137q0 72 -81 84l-17 2h-213l-16 -2q-90 -12 -90 -94v-107z" />
<glyph unicode="7" horiz-adv-x="1245" d="M113 1157v318h743q113 0 178.5 -59.5t65.5 -153.5q0 -53 -21 -107l-415 -1155h-338l417 1157h-630z" />
<glyph unicode="8" horiz-adv-x="1243" d="M96 283q2 18 2 28v209q0 131 115 207l41 21l-41 22q-115 76 -115 205v209q0 98 33 155.5t111 98.5q35 16 77.5 24t118.5 8h365q84 0 121 -6t75 -26q78 -39 111 -97.5t33 -156.5v-209q0 -61 -29 -114.5t-86 -90.5l-39 -22l39 -21q53 -35 84 -90t31 -117v-209 q0 -106 -33 -169.5t-111 -108.5q-33 -18 -74.5 -26.5t-121.5 -8.5h-365q-76 0 -119 8t-77 27q-145 86 -146 250zM416 391q0 -39 24 -61q20 -14 35 -15h291q29 0 44 20.5t15 55.5v127l-6 29q-18 37 -69 45h-15h-229h-14q-51 -8 -68 -45q-8 -16 -8 -29v-127zM416 963 q0 -53 92 -54h227q53 0 71.5 16.5t18.5 35.5v118q0 74 -92 74h-225q-92 0 -92 -74v-116z" />
<glyph unicode="9" horiz-adv-x="1245" d="M96 831v345l6 67q49 231 304 232h411q174 0 253 -81t79 -259v-807q0 -174 -81 -251t-267 -77h-621v326h586l16 4q49 16 49 71v123h-454q-16 -4 -35.5 -6t-48.5 -2q-43 0 -76.5 9t-58.5 38q-43 49 -58 162q-4 37 -4 106zM414 928q0 -72 82 -84l14 -2h213l16 2q92 12 92 94 v106q0 102 -106 103h-219h-17q-43 -6 -59 -24.5t-16 -57.5v-137z" />
<glyph unicode=":" horiz-adv-x="514" d="M82 170q0 -72 53 -121t123 -49q72 0 123 52t51 124q0 70 -50 122t-124 52t-125 -53t-51 -127zM82 926q0 74 51 127t125 53t124 -52.5t50 -123.5q0 -74 -53 -123q-49 -51 -121 -51q-70 0 -123 49t-53 121z" />
<glyph unicode=";" horiz-adv-x="520" d="M82 -219l102 219q-47 23 -73.5 66t-26.5 98q0 78 54.5 128t121.5 50q72 0 125 -53t53 -135q0 -29 -4 -43l-18 -50l-133 -278zM82 926q0 -72 53 -121t123 -49q72 0 123 52t51 124q0 70 -50 122t-124 52t-125 -53t-51 -127z" />
<glyph unicode="?" horiz-adv-x="1105" d="M51 1157h555l19 -2q68 -10 67 -74v-163q0 -39 -10 -49.5t-35 -18.5l-18 -4l-15 -2h-20h-55l-43 -2q-121 -18 -179 -113q-35 -57 -34 -119v-204l317 -3v154h131q215 0 270 209q4 12 6.5 29.5t2.5 29.5v330l-4 59q-23 137 -91.5 199t-201.5 62h-662v-318zM262 170 q0 74 51.5 127t124.5 53q74 0 124 -52t50 -124q0 -74 -52 -124t-124 -50q-68 0 -121 49t-53 121z" />
<glyph unicode="A" horiz-adv-x="1296" d="M-8 0l407 1292q61 197 250 197q188 0 248 -197l408 -1292h-332l-101 317h-448l-100 -317h-332zM518 618h260l-149 478z" />
<glyph unicode="B" horiz-adv-x="1251" d="M96 0v1475h762q160 0 240 -99q31 -41 42 -90t11 -143v-121q0 -213 -127 -281q53 -23 85 -73t42 -133l4 -56v-149l-4 -62q-37 -268 -307 -268h-748zM414 317h331h17q72 8 72 82v97q0 74 -78 86h-19h-323v-265zM414 899h350q74 0 74 80v98q0 43 -35 68q-23 12 -39 12h-350 v-258z" />
<glyph unicode="C" horiz-adv-x="1126" d="M96 328v811q0 193 74 264.5t272 71.5h619v-318h-529h-28h-17q-61 -6 -73 -65v-37v-609q0 -74 19.5 -101.5t74.5 -27.5h27h526v-317h-666q-53 0 -110 23q-189 74 -189 305z" />
<glyph unicode="D" horiz-adv-x="1263" d="M96 0v1475h754q317 0 317 -326v-825l-4 -54q-35 -270 -301 -270q-8 -4 -213 -4q-139 0 -285.5 1t-267.5 3zM414 317h325q66 0 87.5 19.5t21.5 87.5l2 20v646q0 31 -20.5 45t-67.5 20l-25 2h-323v-840z" />
<glyph unicode="E" horiz-adv-x="1140" d="M96 307v848l6 66q41 254 301 254h656v-318h-518h-47l-27 -6q-53 -20 -53 -88v-164h645v-317h-645v-164q0 -92 82 -101h47h516v-317h-610q-353 0 -353 307z" />
<glyph unicode="F" horiz-adv-x="1107" d="M96 0v1174q0 82 22.5 140t66.5 97t91.5 51.5t153.5 12.5h627v-318h-535q-94 0 -106 -72l-2 -20v-166h643v-317h-643v-582h-318z" />
<glyph unicode="G" horiz-adv-x="1247" d="M96 418v692q0 203 81 284t282 81h598v-318h-529h-43h-14q-49 -6 -57 -61v-47v-617v-45v-8l8 -23q14 -31 59 -39h47h205q51 0 73.5 14.5t27.5 51.5v39v426h317v-473q0 -141 -29 -201q-45 -96 -112.5 -135t-184.5 -39h-364q-111 0 -174.5 21.5t-112.5 75t-63.5 112.5 t-14.5 209z" />
<glyph unicode="H" horiz-adv-x="1273" d="M96 0v1475h318v-576h446v576h318v-1475h-318v582h-446v-582h-318z" />
<glyph unicode="I" horiz-adv-x="509" d="M96 0v1475h318v-1475h-318z" />
<glyph unicode="J" horiz-adv-x="671" d="M37 0v317h67h72q82 0 82 76v27v37v1018h317v-1121q0 -88 -8 -131t-30 -82q-47 -76 -112 -108.5t-171 -32.5h-217z" />
<glyph unicode="K" horiz-adv-x="1167" d="M96 0h318v1475h-318v-1475zM422 748q0 29 18 75l37 66l324 586h362l-399 -725l412 -750h-365l-330 592q-59 111 -59 156z" />
<glyph unicode="L" horiz-adv-x="1091" d="M96 360v1115h318v-1024v-62q0 -72 80 -72h57h504l-2 -317h-588l-53 2q-166 0 -241 89t-75 269z" />
<glyph unicode="M" horiz-adv-x="1673" d="M96 0v1214q0 123 76 201t201 78q45 0 100 -11.5t104.5 -60.5t65.5 -121l184 -851l205 851q35 152 185 185q18 4 42.5 6t43.5 2q123 0 198.5 -78t75.5 -201v-1214h-301v1055l-229 -889q-10 -41 -13 -45q-4 -12 -20 -45q-27 -53 -74 -82t-104 -29q-82 0 -138 60 q-45 45 -71 141l-228 889v-1055h-303z" />
<glyph unicode="N" horiz-adv-x="1259" d="M96 0v1182q0 139 73 224t189 85q49 0 105 -18q131 -49 176 -224l223 -854v1080h301v-1221q0 -117 -74.5 -195.5t-183.5 -78.5q-104 0 -175 60t-105 189l-226 846v-1075h-303z" />
<glyph unicode="O" horiz-adv-x="1230" d="M96 1157v39q0 6 8 39q27 127 103 183.5t223 56.5h375q330 0 330 -318v-840q0 -317 -332 -317h-373q-152 0 -225.5 55.5t-98.5 184.5q-4 18 -6 34.5t-2 40.5zM416 420q0 -57 22.5 -80t81.5 -23h195q61 0 82.5 19.5t21.5 73.5v645q0 57 -22.5 79.5t-81.5 22.5h-195 q-59 0 -79.5 -20.5t-20.5 -81.5z" />
<glyph unicode="P" horiz-adv-x="1202" d="M96 0v1475h738q147 0 232 -82t85 -211v-363q0 -135 -88 -217q-80 -72 -205 -72h-444v-530h-318zM414 856h309q66 0 88.5 16.5t22.5 63.5v131v14q-4 39 -21.5 54.5t-60.5 21.5h-19h-319v-301z" />
<glyph unicode="Q" horiz-adv-x="1236" d="M96 295v20v2v840q0 317 330 318h377q330 0 330 -318v-840q0 -121 -46 -192q-61 -102 -163 -113l217 -227h-439l-213 215h-63q-39 4 -61 8q-135 28 -203 94q-39 39 -52.5 90.5t-13.5 102.5zM414 420q0 -59 21.5 -81t82.5 -22h193q61 0 82.5 19.5t21.5 73.5v645 q0 59 -21.5 80.5t-82.5 21.5h-193q-61 0 -82.5 -21.5t-21.5 -80.5v-635z" />
<glyph unicode="R" horiz-adv-x="1222" d="M96 0v1475h742q264 0 301 -242q4 -20 4 -57v-295v-23q0 -14 -4 -39q-41 -205 -238 -233l-55 -4l-49 2l360 -584h-375l-333 549q-26 39 -26 93q0 10 1 22q0 90 52 138t138 48h129q84 0 84 84v135q0 74 -77 86l-21 2h-315v-1157h-318z" />
<glyph unicode="S" horiz-adv-x="1110" d="M82 870v314q0 41 8 73q29 115 97.5 166.5t195.5 51.5h645v-318h-514h-20l-25 -2q-45 -6 -63 -41l-7 -31v-98l2 -20q10 -55 80 -64l21 -2h229q246 0 291 -229l6 -62v-297q0 -272 -264 -307l-53 -4h-627v317h514h29h10l18 7q55 23 56 79v107q0 63 -68 72h-37h-227 q-158 0 -248 131q-49 76 -49 157z" />
<glyph unicode="T" horiz-adv-x="995" d="M23 1157v318h950v-318h-318v-1157h-317v1157h-315z" />
<glyph unicode="U" horiz-adv-x="1259" d="M96 367v1108h318v-1053v-35v-10q8 -59 108 -60h215q100 0 107 56l2 10v33v1059h317v-1106q0 -92 -6 -129t-27 -78q-86 -162 -296 -162h-408q-215 0 -297 160q-16 35 -24.5 81t-8.5 126z" />
<glyph unicode="V" horiz-adv-x="1263" d="M-23 1475h336l316 -1049l323 1049h334l-434 -1311q-31 -90 -86 -136t-133 -46q-160 0 -221 182z" />
<glyph unicode="W" horiz-adv-x="1736" d="M23 1475h307l190 -1024l105 809q14 111 79.5 174t159.5 63q47 0 102.5 -21.5t96.5 -77t51 -138.5l105 -809l188 1024h307l-237 -1287q-29 -158 -172 -200q-41 -12 -80 -13q-92 0 -162 59.5t-82 153.5l-123 875l-100 -875q-10 -92 -82 -152.5t-166 -60.5q-37 0 -78 13 q-143 43 -172 200z" />
<glyph unicode="X" horiz-adv-x="1265" d="M-23 0l484 754l-459 721h377l246 -414l262 414h377l-459 -721l483 -754h-377l-288 453l-269 -453h-377z" />
<glyph unicode="Y" horiz-adv-x="1261" d="M-23 1475h363l278 -551l304 551h362l-496 -902v-573h-317v573z" />
<glyph unicode="Z" horiz-adv-x="1124" d="M51 217q0 35 11.5 63.5t21.5 44t14 21.5l561 811h-583v318h778q82 0 137.5 -41t73.5 -113q8 -27 8 -64q0 -61 -29 -100l-587 -840h573v-317h-696l-84 6q-90 10 -144.5 70.5t-54.5 140.5z" />
<glyph unicode="[" horiz-adv-x="516" d="M96 0v1475h369v-222h-88v-1032h88v-221h-369z" />
<glyph unicode="\" horiz-adv-x="634" d="M78 1475h221l258 -1475h-221z" />
<glyph unicode="]" horiz-adv-x="516" d="M51 0v221h88v1032h-88v222h369v-1475h-369z" />
<glyph unicode="^" horiz-adv-x="1120" d="M78 328l483 862l481 -862h-251l-230 442l-231 -442h-252z" />
<glyph unicode="_" horiz-adv-x="892" d="M78 0h737v-74h-737v74z" />
<glyph unicode="`" horiz-adv-x="389" d="M-51 1440l250 -6l118 -222l-215 2z" />
<glyph unicode="a" d="M96 250v225q0 123 72 192.5t199 69.5h374l-2 60q0 35 -59 43h-14h-566v266h637l49 -4q106 -12 159.5 -59.5t70.5 -147.5q4 -16 4 -49v-586q0 -35 -4 -51q-18 -94 -86 -151.5t-164 -57.5h-385q-242 0 -281 201q2 16 0 30q0 7 -4 19zM377 336q0 -21 14 -37q12 -18 43 -25 l15 -2h219q37 0 54 20.5t17 43.5v78q0 29 -4 35q-4 8 -30 20q-10 8 -39 8h-234l-12 -2q-37 -6 -43 -53v-16v-70z" />
<glyph unicode="b" horiz-adv-x="1124" d="M94 268q2 19 2 29v1223h281v-414h399l53 -6q78 -16 131.5 -75.5t63.5 -147.5l4 -46v-552q0 -86 -37 -148q-74 -131 -219 -131h-397q-135 0 -213 86q-68 74 -68 182zM377 346l4 -20q10 -33 49 -43l16 -2h230l16 2q23 4 39.5 16t16.5 27v419l-3 15q-2 33 -22 45 q-27 20 -49 20h-217q-63 0 -78 -65l-2 -12v-402z" />
<glyph unicode="c" horiz-adv-x="905" d="M96 287v557q0 223 189 258l45 4h510v-281h-379q-45 0 -61.5 -8t-22.5 -37v-35v-387q0 -29 14 -45q19 -32 61 -32h3h385v-281h-451q-293 0 -293 287z" />
<glyph unicode="d" horiz-adv-x="1124" d="M92 279v552l2 46q12 88 63.5 147t131.5 76l55 6h399v414h281v-1223q0 -80 -14.5 -126t-51.5 -85q-78 -86 -213 -86h-397q-78 0 -128 29.5t-93 101.5q-35 64 -35 148zM375 346l4 -20q10 -33 49 -43l16 -2h230l16 2q55 8 55 43v419v15q-6 33 -24 45q-27 20 -49 20h-215 q-35 0 -53.5 -14t-26.5 -51l-2 -12v-402z" />
<glyph unicode="e" horiz-adv-x="1097" d="M96 287v561l6 55q47 203 269 203h381l49 -4q188 -31 213 -217l2 -47v-222l-635 -239v-19q0 -35 15.5 -56t39.5 -21h578v-281h-617q-70 0 -101.5 6t-64.5 25q-74 41 -104.5 99t-30.5 157zM377 627l354 129v10q-8 35 -53 43l-14 2h-197l-31 -6q-39 -10 -53 -37l-6 -29v-112 z" />
<glyph unicode="f" horiz-adv-x="581" d="M96 0v1266q0 106 83 179t216 73h178v-269h-106l-14 -2q-76 -12 -76 -82v-59h196v-281h-196v-825h-281z" />
<glyph unicode="g" horiz-adv-x="1126" d="M96 -133h570h10q41 6 55 19.5t19 50.5v16v47h-365q-115 0 -188 59q-96 78 -97 195v549q0 162 69 232.5t218 70.5h373l51 -2q121 -14 165 -60.5t54 -171.5v-32v-969q0 -33 -4 -47q-41 -238 -281 -238q-2 -2 -83.5 -2h-124.5h-42.5h-31.5h-66h-57h-47h-41h-33h-26h-65 t-32 2v281zM381 354l2 -12q10 -39 47 -55l27 -6h221h14q57 12 58 73v387v23v10q-6 29 -41 43l-33 8h-223q-18 -2 -27 -6q-35 -14 -43 -53l-2 -14v-398z" />
<glyph unicode="h" horiz-adv-x="1110" d="M96 0v1520h281v-414h381l45 -4q174 -35 209 -205l2 -43v-854h-279v739v25l-2 10q0 45 -55 51h-14h-207q-43 0 -64 -20q-12 -12 -16 -31v-37v-737h-281z" />
<glyph unicode="i" horiz-adv-x="473" d="M61 1389q0 76 50 129q27 27 57.5 39t67.5 12q76 0 124 -51q27 -27 39.5 -57.5t12.5 -67.5q0 -70 -52.5 -122t-123.5 -52q-68 0 -121.5 51t-53.5 119zM96 0h281v1106h-281v-1106z" />
<glyph unicode="j" horiz-adv-x="468" d="M-96 -133v-281h176q139 0 216 75t77 214l2 1231h-281v-1157q0 -72 -69 -80l-15 -2h-106zM55 1389q0 76 49 129q27 27 58 39t67 12q74 0 125 -51q27 -27 39.5 -57.5t12.5 -67.5q0 -70 -54.5 -122t-124.5 -52t-121 51t-51 119z" />
<glyph unicode="k" horiz-adv-x="1052" d="M96 0h281v1520h-281v-1520zM385 569q0 18 2 29q4 16 10.5 32t16.5 36l260 440h325l-315 -535l346 -571h-330l-292 489q-23 39 -23 80z" />
<glyph unicode="l" horiz-adv-x="473" d="M96 0v1520h281v-1520h-281z" />
<glyph unicode="m" horiz-adv-x="1576" d="M96 0v840q0 96 40 154.5t90 85t128 26.5h215q162 0 219 -98q53 98 220 98h215q143 0 221 -117q37 -59 37 -149l-2 -840h-281l2 741q0 43 -19.5 63.5t-58.5 20.5h-123l-28 -6q-43 -16 -43 -65v-754h-281v754q0 57 -59 71h-13h-122q-63 0 -78 -65l-2 -19l4 -741h-281z" />
<glyph unicode="n" horiz-adv-x="1110" d="M96 0v842l4 51q16 106 80 159.5t180 53.5h390q225 0 260 -213l4 -51v-842h-281v748l-2 16q-8 61 -90 61h-174q-82 0 -90 -61v-16v-748h-281z" />
<glyph unicode="o" horiz-adv-x="1126" d="M96 248v610l6 49q39 199 273 199h377q231 0 274 -199q4 -16 4 -49v-610q0 -33 -4 -49q-43 -199 -274 -199h-377q-233 0 -273 199zM377 356q-1 -32 24 -57q23 -18 39 -18h248q27 0 49 32q14 23 15 45v392q0 33 -22.5 54t-41.5 21h-248q-20 0 -41.5 -21.5t-21.5 -53.5v-394 z" />
<glyph unicode="p" d="M96 -414v1225l4 57q14 109 61.5 162t147.5 72l39 4h402l57 -6q213 -37 213 -277v-573q0 -74 -51 -139l-31 -35q-82 -76 -180 -76h-381v-414q-14 2 -32.5 3t-45.5 1q-49 0 -103.5 -1t-99.5 -3zM377 365l2 -17q8 -57 70 -65l16 -2h201h12q29 6 45 24q16 27 16 41v414v8 q-8 45 -53 55l-10 2h-219q-49 0 -70 -47q-10 -20 -10 -37v-376z" />
<glyph unicode="q" d="M96 250v573q0 240 213 277l56 6h403l39 -4q100 -18 147 -69.5t62 -164.5l4 -57v-1225h-281v414h-381q-100 0 -180 76q-14 10 -26 22q-46 50 -56 152zM377 346q0 -18 16 -41q16 -18 45 -24h13h200l17 2q57 8 69 65l2 17v376q0 16 -10 37q-20 47 -70 47h-219l-10 -2 q-45 -10 -53 -55v-8v-414z" />
<glyph unicode="r" horiz-adv-x="579" d="M96 0v821q0 285 285 285h190v-281h-104h-18q-72 -10 -72 -59v-33v-733h-281z" />
<glyph unicode="s" horiz-adv-x="1009" d="M82 0v281h487h13q47 8 55 43l2 12v22l-6 25q-14 25 -41 31h-29h-213q-68 0 -121 30q-141 78 -141 205v207q0 37 8 64q45 186 264 186h566l2 -281h-482h-24l-27 -8l-6 -6q-25 -23 -24 -37v-26q2 -6 2 -11q2 -10 13 -23.5t52 -19.5h14h236q104 0 174 -84t70 -161l-4 -203 q0 -68 -44 -132.5t-91.5 -89t-127.5 -24.5h-577z" />
<glyph unicode="t" horiz-adv-x="573" d="M96 0v1520h281v-414h188v-281h-188v-825h-281z" />
<glyph unicode="u" horiz-adv-x="1110" d="M96 264v842h281v-748v-16q8 -61 90 -61h174q82 0 90 61l2 16v748h281v-842l-4 -51q-16 -106 -80 -159.5t-180 -53.5h-390q-225 0 -260 213z" />
<glyph unicode="v" horiz-adv-x="1073" d="M-23 1106h285l273 -750l276 750h285l-373 -1002q-20 -53 -70.5 -86.5t-115.5 -33.5q-25 0 -54 6q-100 25 -133 114z" />
<glyph unicode="w" horiz-adv-x="1484" d="M23 1106h272l151 -774l97 596q14 90 69.5 141t130.5 51q76 0 130.5 -50t68.5 -142l96 -596l154 774h270l-182 -918q-20 -96 -83.5 -152t-149.5 -56q-84 0 -145.5 54t-78.5 142l-88 559l-73 -559q-10 -84 -73 -140t-149 -56q-88 0 -151.5 55t-83.5 153z" />
<glyph unicode="x" horiz-adv-x="997" d="M-8 0l352 582l-315 524h325l138 -248l151 248h326l-316 -524l353 -582h-328l-184 303l-175 -303h-327z" />
<glyph unicode="y" horiz-adv-x="1112" d="M96 -133h561l17 2q53 12 63 65v25v41h-362q-88 0 -137.5 24.5t-102.5 100.5q-39 57 -39 156v825h281v-737q0 -88 76 -88h198l17 2q59 10 69 67v29v727h279v-1219q0 -37 -4 -55q-27 -199 -203 -240l-57 -6h-656v281z" />
<glyph unicode="z" horiz-adv-x="1105" d="M53 203q0 78 68 139l528 483h-567v281h713q215 0 243 -170q4 -29 4 -45q0 -88 -49 -131l-551 -479h562v-281h-711q-121 0 -180.5 63.5t-59.5 139.5z" />
<glyph unicode="{" horiz-adv-x="694" d="M78 737q23 0 49 11q84 37 84 137v657q0 82 48 128t134 46h223v-133h-26q-68 0 -92.5 -22.5t-24.5 -87.5v-558q0 -55 -28.5 -98t-79.5 -65q-25 -10 -56 -15q31 -2 56 -14q47 -20 77.5 -65.5t30.5 -98.5v-557q0 -61 24.5 -86t92.5 -25h26v-133h-223q-88 0 -135 45t-47 129 v658q0 63 -38 105t-95 42z" />
<glyph unicode="}" horiz-adv-x="694" d="M78 -109h24q68 0 92.5 23t24.5 88v557q0 117 111 164q23 10 53 14q-31 4 -53 15q-49 20 -80 65t-31 98v558q0 61 -24.5 85.5t-92.5 24.5h-24v133h221q88 0 136 -46t48 -128v-657q0 -66 37 -107t96 -41q-25 0 -51 -10q-82 -37 -82 -137v-658q0 -82 -48 -128t-136 -46h-221 v133z" />
<glyph unicode="~" horiz-adv-x="1005" d="M78 567l2 47q0 141 63.5 217t169.5 76q53 0 127 -26l168 -66l15 -6l36 -10q18 -6 33 -6q39 0 60 57l10 39l2 20h164v-47q-12 -143 -74.5 -218t-163.5 -75q-31 0 -56.5 5.5t-68.5 21.5l-166 66l-51 16q-18 6 -35 6q-39 0 -59 -57l-8 -39l-2 -21h-166z" />
<glyph unicode="&#xa1;" horiz-adv-x="542" d="M96 1303q0 74 51.5 123t122.5 49q72 0 124 -51.5t52 -125.5q0 -72 -51 -123t-123 -51q-74 0 -125 51.5t-51 127.5zM111 0v1073h321v-1073h-321z" />
<glyph unicode="&#xa2;" horiz-adv-x="905" d="M96 293v561l2 45q14 102 53 143t142 60l37 4h239v166h74v-166h197v-272h-197v-549h197v-285h-197v-123h-74v123h-176q-297 0 -297 293zM379 356q0 -39 35 -59q16 -10 41 -10h114v547h-110q-37 0 -52.5 -7.5t-23.5 -27.5l-4 -17v-34v-392z" />
<glyph unicode="&#xa3;" horiz-adv-x="1376" d="M51 0v326q16 -2 49 2q129 20 172 149q14 43 15 76v29h-234v325h236v219q0 168 86 258.5t243 90.5h197q158 0 245 -83t87 -235v-129h-324v33l-2 14q-4 37 -22 55q-29 23 -45 23h-58q-68 0 -82 -68l-2 -12v-168h357v-323h-357l-4 -50l-4 -26q-14 -70 -31.5 -107t-54.5 -71 h404l20 2q86 10 86 88v39h326v-115q0 -82 -38 -151.5t-122 -130t-223 -60.5h-920z" />
<glyph unicode="&#xa5;" horiz-adv-x="1323" d="M8 1475h363l278 -551l303 551h363l-346 -646h323v-176h-420l-53 -80l2 -71h471v-183h-471l-2 -319h-317v322h-459v184h459v67l-39 82h-418v174h322z" />
<glyph unicode="&#xa7;" horiz-adv-x="1009" d="M96 4v272h469h13q45 6 55 39l2 13v22q-4 18 -8 25q-12 23 -39 28h-29h-205q-63 0 -116 31q-70 37 -102 85t-32 112v598q0 37 11 57q41 184 256 184h547v-270h-465h-23l-27 -12l-6 -4q-25 -23 -24 -35v-27q2 -6 2 -10q2 -10 12 -22.5t51 -18.5h15h227q102 0 170 -81 t68 -159l2 -591q0 -66 -41 -129q-43 -57 -96.5 -82t-127.5 -25h-559zM369 739q0 -43 27.5 -55t78.5 -12h29h35q53 0 69 8q31 14 31 59q0 31 -20.5 47.5t-81.5 16.5h-31h-31q-51 0 -78.5 -11.5t-27.5 -52.5z" />
<glyph unicode="&#xa8;" horiz-adv-x="610" d="M-23 1360q0 63 41 108q47 47 109 48q61 0 105 -44.5t44 -105.5t-44 -105t-105 -44q-59 0 -104.5 43t-45.5 100zM334 1360q0 66 43 108q20 23 48 35.5t58 12.5q61 0 105.5 -46.5t44.5 -105.5q0 -61 -44 -104t-106 -43q-57 0 -103 42t-46 101z" />
<glyph unicode="&#xaa;" horiz-adv-x="915" d="M78 1116v53q6 25 8 35q23 106 86 180q47 55 111.5 84t132.5 29q152 0 229 -115l10 -16l9 -16v125h172l2 -701h-176v133l-7 -14q-31 -61 -95 -98t-148 -37q-31 0 -66 6q-119 25 -193.5 122t-74.5 230zM98 518v158h740v-158h-740zM256 1126l4 -43q25 -143 164 -170 q14 -2 41 -2t39 4q131 27 158 168q4 14 4 43q0 31 -4 45q-12 66 -53.5 111t-102.5 59q-16 4 -45 5q-74 0 -130.5 -48.5t-70.5 -128.5z" />
<glyph unicode="&#xab;" horiz-adv-x="927" d="M51 555q0 43 41 102l250 361h193l-322 -461l324 -463h-203l-236 336q-27 37 -37 65.5t-10 59.5zM391 555q0 43 41 102l250 361h192l-319 -461l322 -463h-203l-236 336q-27 37 -37 65.5t-10 59.5z" />
<glyph unicode="&#xad;" horiz-adv-x="661" d="M51 520v271h559v-271h-559z" />
<glyph unicode="&#xaf;" horiz-adv-x="575" d="M8 1231v201h559v-201h-559z" />
<glyph unicode="&#xb4;" horiz-adv-x="419" d="M104 1210l119 222l250 4l-154 -224z" />
<glyph unicode="&#xb6;" horiz-adv-x="1241" d="M78 1051q0 176 122 300t298 124h665v-134h-667q-119 0 -203 -86t-84 -206q0 -119 84 -203t203 -84h133v477h141v-1239h-141v629h-133q-172 0 -295 122.5t-123 299.5zM899 0v1239h141v-1239h-141z" />
<glyph unicode="&#xb7;" horiz-adv-x="452" d="M51 616q0 74 51.5 127.5t124.5 53.5q74 0 124 -52.5t50 -123.5q0 -74 -53 -123q-49 -51 -121 -52q-70 0 -123 49t-53 121z" />
<glyph unicode="&#xb8;" horiz-adv-x="350" d="M8 -295l101 262h233l-141 -262h-193z" />
<glyph unicode="&#xba;" horiz-adv-x="915" d="M78 1128v39q0 6 8 39q29 135 130 217t239 82q31 0 50 -4t27 -4q135 -27 220.5 -129t85.5 -238q0 -47 -9 -81q-27 -131 -130 -214t-242 -83q-162 0 -270.5 108t-108.5 268zM90 518v158h737v-158h-737zM252 1128q0 -27 4 -41q23 -141 160 -172q14 -4 43 -4q76 0 131 47.5 t69 126.5q4 33 5 45q0 78 -45.5 135.5t-118.5 73.5q-14 4 -45 4q-41 0 -80 -16q-100 -45 -119 -158q-4 -10 -4 -20v-21z" />
<glyph unicode="&#xbb;" horiz-adv-x="927" d="M51 1018h203l235 -336q27 -37 37.5 -65.5t10.5 -59.5q0 -43 -41 -102l-250 -361h-193l320 461zM391 1018h203l237 -336q29 -41 37.5 -64.5t8.5 -60.5q0 -43 -41 -102l-250 -361h-193l322 461z" />
<glyph unicode="&#xbf;" horiz-adv-x="1105" d="M96 319v330v29q0 6 8 31q55 209 271 209h131v153l317 -2v-205q0 -29 -8 -60.5t-27 -58.5q-55 -94 -176 -112l-45 -2h-55h-20l-15 -2l-18 -4q-45 -14 -45 -68v-164q0 -63 69 -74l17 -2h555v-317h-660q-133 0 -202.5 61.5t-92.5 198.5zM496 1303q0 74 51 123t123 49 t123 -50.5t51 -126.5q0 -72 -51.5 -123t-122.5 -51q-72 0 -123 51.5t-51 127.5z" />
<glyph unicode="&#xc0;" horiz-adv-x="1296" d="M-8 0l407 1292q61 197 250 197q188 0 248 -197l408 -1292h-332l-101 317h-448l-100 -317h-332zM401 1794l250 -6l119 -221l-215 2zM518 618h260l-149 478z" />
<glyph unicode="&#xc1;" horiz-adv-x="1296" d="M-8 0l407 1292q61 197 250 197q188 0 248 -197l408 -1292h-332l-101 317h-448l-100 -317h-332zM518 618h260l-149 478zM543 1565l119 221l249 4l-153 -223z" />
<glyph unicode="&#xc2;" horiz-adv-x="1296" d="M-8 0l407 1292q61 197 250 197q188 0 248 -197l408 -1292h-332l-101 317h-448l-100 -317h-332zM328 1567l147 223h330l162 -225h-209l-123 168l-103 -166h-204zM518 618h260l-149 478z" />
<glyph unicode="&#xc3;" horiz-adv-x="1296" d="M-8 0l407 1292q61 197 250 197q188 0 248 -197l408 -1292h-332l-101 317h-448l-100 -317h-332zM270 1573v178l119 29l57 14l60 6l55 -4l29 -6l22 -4l97 -25l36 -10q10 -4 43 -4l58 8l43 12l135 29v-178l-104 -25l-58 -14l-31 -8q-37 -4 -49 -4h-24q-16 4 -25 4l-14 4 l-37 8l-80 23l-18 4l-27 8q-18 4 -41 4t-63 -8l-60 -10zM518 618h260l-149 478z" />
<glyph unicode="&#xc4;" horiz-adv-x="1296" d="M-8 0l407 1292q61 197 250 197q188 0 248 -197l408 -1292h-332l-101 317h-448l-100 -317h-332zM264 1739q0 76 52.5 128t123.5 52q72 0 123 -51t51 -123q0 -74 -51 -125t-123 -51t-124 50t-52 120zM518 618h260l-149 478zM684 1739q0 74 51 127t125 53t124 -52t50 -124 q0 -74 -51 -124t-123 -50q-70 0 -123 49t-53 121z" />
<glyph unicode="&#xc5;" horiz-adv-x="1296" d="M-8 0l407 1292q61 197 250 197q188 0 248 -197l408 -1292h-332l-101 317h-448l-100 -317h-332zM463 1700q0 78 55 133t133 55q76 0 131.5 -55t55.5 -133q0 -80 -54.5 -134.5t-132.5 -54.5t-133 55.5t-55 133.5zM518 618h260l-149 478zM596 1700q0 -27 18 -45.5t45 -18.5 q25 0 43.5 18.5t18.5 45.5t-17.5 44t-44.5 17t-45 -16t-18 -45z" />
<glyph unicode="&#xc6;" horiz-adv-x="1892" d="M-8 0l602 1290q43 94 103.5 134t185.5 51l47 2h880v-328h-559l-16 -2q-63 -10 -64 -72v-168h639v-317h-639v-187l3 -10q6 -33 16 -45t41 -18l18 -2h561v-328h-630q-133 0 -217 74q-104 90 -105 205v24h-387l-125 -303h-354zM610 616l246 -2l-2 582z" />
<glyph unicode="&#xc7;" horiz-adv-x="1126" d="M96 328v811q0 193 74 264.5t272 71.5h619v-318h-529h-28h-17q-61 -6 -73 -65v-37v-609q0 -74 19.5 -101.5t74.5 -27.5h27h526v-317h-666q-53 0 -110 23q-189 74 -189 305zM449 -295l100 262h231l-141 -262h-190z" />
<glyph unicode="&#xc8;" horiz-adv-x="1140" d="M96 307v848l6 66q41 254 301 254h656v-318h-518h-47l-27 -6q-53 -20 -53 -88v-164h645v-317h-645v-164q0 -92 82 -101h47h516v-317h-610q-353 0 -353 307zM324 1794l249 -6l119 -221l-215 2z" />
<glyph unicode="&#xc9;" horiz-adv-x="1140" d="M96 307v848l6 66q41 254 301 254h656v-318h-518h-47l-27 -6q-53 -20 -53 -88v-164h645v-317h-645v-164q0 -92 82 -101h47h516v-317h-610q-353 0 -353 307zM465 1565l119 221l250 4l-154 -223z" />
<glyph unicode="&#xca;" horiz-adv-x="1140" d="M96 307v848l6 66q41 254 301 254h656v-318h-518h-47l-27 -6q-53 -20 -53 -88v-164h645v-317h-645v-164q0 -92 82 -101h47h516v-317h-610q-353 0 -353 307zM250 1567l147 223h330l162 -225h-209l-123 168l-102 -166h-205z" />
<glyph unicode="&#xcb;" horiz-adv-x="1140" d="M96 307v848l6 66q41 254 301 254h656v-318h-518h-47l-27 -6q-53 -20 -53 -88v-164h645v-317h-645v-164q0 -92 82 -101h47h516v-317h-610q-353 0 -353 307zM242 1714q0 63 41 109q47 47 108 47t105.5 -44t44.5 -106q0 -61 -44 -105t-106 -44q-59 0 -104 43t-45 100z M598 1714q0 66 43 109q20 23 48 35t59 12q61 0 105 -46t44 -106q0 -61 -44 -104t-105 -43q-57 0 -103.5 42t-46.5 101z" />
<glyph unicode="&#xcc;" horiz-adv-x="509" d="M8 1794l250 -6l119 -221l-215 2zM96 0v1475h318v-1475h-318z" />
<glyph unicode="&#xcd;" horiz-adv-x="509" d="M96 0v1475h318v-1475h-318zM150 1565l118 221l250 4l-153 -223z" />
<glyph unicode="&#xce;" horiz-adv-x="509" d="M-66 1567l148 223h330l161 -225h-208l-123 168l-103 -166h-205zM96 0v1475h318v-1475h-318z" />
<glyph unicode="&#xcf;" horiz-adv-x="509" d="M-74 1714q0 63 41 109q47 47 109 47q61 0 105 -44t44 -106q0 -61 -44 -105t-105 -44q-59 0 -104.5 43t-45.5 100zM96 0v1475h318v-1475h-318zM283 1714q0 66 43 109q20 23 47.5 35t58.5 12q61 0 105.5 -46t44.5 -106q0 -61 -44 -104t-106 -43q-57 0 -103 42t-46 101z" />
<glyph unicode="&#xd0;" horiz-adv-x="1263" d="M-12 594v289h108v592h754q317 0 317 -326v-825l-4 -54q-35 -270 -301 -270q-8 -4 -213 -4q-139 0 -285.5 1t-267.5 3v594h-108zM414 317h325q66 0 87.5 19.5t21.5 87.5l2 20v646q0 31 -20.5 45t-67.5 20l-25 2h-323v-274h84v-289h-84v-277z" />
<glyph unicode="&#xd1;" horiz-adv-x="1259" d="M96 0v1182q0 139 73 224t189 85q49 0 105 -18q131 -49 176 -224l223 -854v1080h301v-1221q0 -117 -74.5 -195.5t-183.5 -78.5q-104 0 -175 60t-105 189l-226 846v-1075h-303zM252 1573v178l119 29l57 14l59 6l56 -4l28 -6l23 -4l96 -25l37 -10q10 -4 43 -4l57 8l43 12 l136 29v-178l-105 -25l-57 -14l-31 -8q-37 -4 -49 -4h-25q-16 4 -24 4l-15 4l-36 8l-80 23l-19 4l-26 8q-18 4 -41 4t-64 -8l-59 -10z" />
<glyph unicode="&#xd2;" horiz-adv-x="1230" d="M96 1157v39q0 6 8 39q27 127 103 183.5t223 56.5h375q330 0 330 -318v-840q0 -317 -332 -317h-373q-152 0 -225.5 55.5t-98.5 184.5l-8 75zM369 1794l249 -6l119 -221l-215 2zM414 1055l2 -635q0 -57 22.5 -80t81.5 -23h195q61 0 82.5 19.5t21.5 73.5v645 q0 57 -22.5 79.5t-81.5 22.5h-195q-59 0 -82.5 -21.5t-23.5 -80.5z" />
<glyph unicode="&#xd3;" horiz-adv-x="1230" d="M96 1157v39q0 6 8 39q27 127 103 183.5t223 56.5h375q330 0 330 -318v-840q0 -317 -332 -317h-373q-152 0 -225.5 55.5t-98.5 184.5l-8 75zM414 1055l2 -635q0 -57 22.5 -80t81.5 -23h195q61 0 82.5 19.5t21.5 73.5v645q0 57 -22.5 79.5t-81.5 22.5h-195 q-59 0 -82.5 -21.5t-23.5 -80.5zM510 1565l119 221l250 4l-154 -223z" />
<glyph unicode="&#xd4;" horiz-adv-x="1230" d="M96 1157v39q0 6 8 39q27 127 103 183.5t223 56.5h375q330 0 330 -318v-840q0 -317 -332 -317h-373q-152 0 -225.5 55.5t-98.5 184.5l-8 75zM295 1567l147 223h330l162 -225h-209l-123 168l-102 -166h-205zM414 1055l2 -635q0 -57 22.5 -80t81.5 -23h195q61 0 82.5 19.5 t21.5 73.5v645q0 57 -22.5 79.5t-81.5 22.5h-195q-59 0 -82.5 -21.5t-23.5 -80.5z" />
<glyph unicode="&#xd5;" horiz-adv-x="1230" d="M96 1157v39q0 6 8 39q27 127 103 183.5t223 56.5h375q330 0 330 -318v-840q0 -317 -332 -317h-373q-152 0 -225.5 55.5t-98.5 184.5l-8 75zM238 1573v178l118 29l58 14l59 6l55 -4l29 -6l23 -4l96 -25l37 -10q10 -4 43 -4l57 8l43 12l135 29v-178l-104 -25l-58 -14 l-30 -8q-37 -4 -49 -4h-25q-16 4 -25 4l-14 4l-37 8l-80 23l-18 4l-27 8q-18 4 -41 4t-63 -8l-60 -10zM414 1055l2 -635q0 -57 22.5 -80t81.5 -23h195q61 0 82.5 19.5t21.5 73.5v645q0 57 -22.5 79.5t-81.5 22.5h-195q-59 0 -82.5 -21.5t-23.5 -80.5z" />
<glyph unicode="&#xd6;" horiz-adv-x="1230" d="M96 1157v39q0 6 8 39q27 127 103 183.5t223 56.5h375q330 0 330 -318v-840q0 -317 -332 -317h-373q-152 0 -225.5 55.5t-98.5 184.5l-8 75zM211 1739q0 74 51 127t123 53t124 -52t52 -124q0 -74 -52 -124t-124 -50t-123 49t-51 121zM414 1055l2 -635q0 -57 22.5 -80 t81.5 -23h195q61 0 82.5 19.5t21.5 73.5v645q0 57 -22.5 79.5t-81.5 22.5h-195q-59 0 -82.5 -21.5t-23.5 -80.5zM631 1739q0 78 51 129t123 51t123 -51t51 -123q0 -74 -51 -125t-123 -51t-123 49t-51 121z" />
<glyph unicode="&#xd7;" horiz-adv-x="0" />
<glyph unicode="&#xd8;" horiz-adv-x="1232" d="M96 313v848q0 39 8 70q27 125 86.5 176t186.5 66l49 2h375q137 0 217 -50l33 52h86l-64 -101q61 -92 62 -217v-842q0 -117 -34 -178t-128 -108q-59 -31 -172 -31h-371q-109 0 -166 25l-45 24l-31 -49l-90 -4l66 102q-68 96 -68 215zM412 1098l2 -43v-561l395 610l-6 18 q-20 29 -45 37h-43h-193h-49q-23 -6 -39 -18q-23 -23 -22 -43zM420 365q14 -48 63 -48l37 -2h193q55 0 77.5 19.5t22.5 32.5v49v559z" />
<glyph unicode="&#xd9;" horiz-adv-x="1259" d="M96 367v1108h318v-1053v-35v-10q8 -59 108 -60h215q100 0 107 56l2 10v33v1059h317v-1106q0 -92 -6 -129t-27 -78q-86 -162 -296 -162h-408q-215 0 -297 160q-16 35 -24.5 81t-8.5 126zM383 1794l250 -6l119 -221l-215 2z" />
<glyph unicode="&#xda;" horiz-adv-x="1259" d="M96 367v1108h318v-1053v-35v-10q8 -59 108 -60h215q100 0 107 56l2 10v33v1059h317v-1106q0 -92 -6 -129t-27 -78q-86 -162 -296 -162h-408q-215 0 -297 160q-16 35 -24.5 81t-8.5 126zM524 1565l119 221l250 4l-154 -223z" />
<glyph unicode="&#xdb;" horiz-adv-x="1259" d="M96 367v1108h318v-1053v-35v-10q8 -59 108 -60h215q100 0 107 56l2 10v33v1059h317v-1106q0 -92 -6 -129t-27 -78q-86 -162 -296 -162h-408q-215 0 -297 160q-16 35 -24.5 81t-8.5 126zM309 1567l148 223h329l162 -225h-209l-123 168l-102 -166h-205z" />
<glyph unicode="&#xdc;" horiz-adv-x="1259" d="M96 367v1108h318v-1053v-35v-10q8 -59 108 -60h215q100 0 107 56l2 10v33v1059h317v-1106q0 -92 -6 -129t-27 -78q-86 -162 -296 -162h-408q-215 0 -297 160q-16 35 -24.5 81t-8.5 126zM244 1739q0 74 51 127t125 53q72 0 123 -51t51 -123q0 -74 -51 -125t-123 -51 t-124 50t-52 120zM664 1739q0 74 51 127t125 53t124 -52t50 -124q0 -74 -51.5 -124t-122.5 -50q-70 0 -123 49t-53 121z" />
<glyph unicode="&#xdd;" horiz-adv-x="1261" d="M-23 1475h363l278 -551l304 551h362l-496 -902v-573h-317v573zM506 1565l119 221l249 4l-153 -223z" />
<glyph unicode="&#xdf;" horiz-adv-x="1206" d="M96 0v1157l6 62q23 135 92.5 195.5t204.5 60.5h314q154 0 233 -119q47 -70 47 -150v-141q0 -61 -24.5 -108.5t-71.5 -75.5l21 -7q109 -39 159 -106q78 -102 78 -199v-264q0 -141 -84 -223t-229 -82h-363v328h260h19q78 8 78 86v116l-2 23q-14 63 -91 76h-18h-246v317h115 l29 8q29 10 37 27.5t10 36.5l2 18v33q0 20 -13 43l-20 21q-29 20 -49 18h-78q-45 0 -72 -35q-18 -23 -18 -47v-1069h-326z" />
<glyph unicode="&#xe0;" d="M96 250v225q0 123 72 192.5t199 69.5h374v29l-2 16v15q-6 35 -59 43h-14h-566v266h637l49 -4q106 -12 159.5 -59.5t70.5 -147.5q4 -16 4 -49v-586q0 -35 -4 -51q-18 -94 -86 -151.5t-164 -57.5h-385q-242 0 -281 201zM311 1440l250 -6l119 -222l-215 2zM377 336 q0 -21 14 -37q12 -18 43 -25l15 -2h219q37 0 54 20.5t17 43.5v78q0 29 -4 35q-4 8 -30 20q-10 8 -39 8h-217h-17l-12 -2q-37 0 -43 -53v-16v-70z" />
<glyph unicode="&#xe1;" d="M96 250v225q0 123 72 192.5t199 69.5h374v29l-2 16v15q-6 35 -59 43h-14h-566v266h637l49 -4q106 -12 159.5 -59.5t70.5 -147.5q4 -16 4 -49v-586q0 -35 -4 -51q-18 -94 -86 -151.5t-164 -57.5h-385q-242 0 -281 201zM377 336q0 -21 14 -37q12 -18 43 -25l15 -2h219 q37 0 54 20.5t17 43.5v78q0 29 -4 35q-4 8 -30 20q-10 8 -39 8h-217h-17l-12 -2q-37 0 -43 -53v-16v-70zM453 1210l118 222l250 4l-153 -224z" />
<glyph unicode="&#xe2;" d="M96 250v225q0 123 72 192.5t199 69.5h374v29l-2 16v15q-6 35 -59 43h-14h-566v266h637l49 -4q106 -12 159.5 -59.5t70.5 -147.5q4 -16 4 -49v-586q0 -35 -4 -51q-18 -94 -86 -151.5t-164 -57.5h-385q-242 0 -281 201zM238 1212l147 224h330l162 -226h-209l-123 168 l-103 -166h-204zM377 336q0 -21 14 -37q12 -18 43 -25l15 -2h219q37 0 54 20.5t17 43.5v78q0 29 -4 35q-4 8 -30 20q-10 8 -39 8h-217h-17l-12 -2q-37 0 -43 -53v-16v-70z" />
<glyph unicode="&#xe3;" d="M96 250v225q0 123 72 192.5t199 69.5h374v29l-2 16v15q-6 35 -59 43h-14h-566v266h637l49 -4q106 -12 159.5 -59.5t70.5 -147.5q4 -16 4 -49v-586q0 -35 -4 -51q-18 -94 -86 -151.5t-164 -57.5h-385q-242 0 -281 201zM180 1219v178l119 28l57 15l60 6l55 -4l29 -6l22 -4 l96 -25l37 -10q10 -4 43 -4l58 8l43 12l135 29v-178l-105 -25l-57 -14l-31 -8q-37 -4 -49 -5h-24q-16 4 -25 5l-14 4l-37 8l-80 22l-18 4l-27 9q-18 4 -41 4t-64 -8l-59 -11zM377 336q0 -21 14 -37q12 -18 43 -25l15 -2h219q37 0 54 20.5t17 43.5v78q0 29 -4 35q-4 8 -30 20 q-10 8 -39 8h-217h-17l-12 -2q-37 0 -43 -53v-16v-70z" />
<glyph unicode="&#xe4;" d="M96 250v225q0 123 72 192.5t199 69.5h374v13l-2 18v14q-6 35 -59 43h-14h-566v281h637l49 -4q106 -12 159.5 -59.5t70.5 -147.5q4 -16 4 -49v-586q0 -35 -4 -51q-18 -94 -86 -151.5t-164 -57.5h-385q-242 0 -281 201zM168 1378q0 78 50 129.5t126 51.5q74 0 123 -52 q27 -27 39 -57.5t12 -67.5q0 -74 -53 -122q-49 -51 -121 -52q-70 0 -123 51t-53 119zM377 344q0 -19 14 -39q14 -18 43 -24h15h219q37 0 54 18t17 45v64q0 27 -4 32q-4 8 -30 23q-12 6 -39 6h-217h-17h-12q-37 -6 -43 -55v-17v-53zM588 1378q0 78 50 129.5t124 51.5t125 -52 q27 -27 39 -57.5t12 -67.5q0 -74 -52 -124t-124 -50t-123 51t-51 119z" />
<glyph unicode="&#xe5;" d="M96 250v225q0 123 72 192.5t199 69.5h374v13l-2 18v14q-6 35 -59 43h-14h-566v281h637l49 -4q106 -12 159.5 -59.5t70.5 -147.5q4 -16 4 -49v-586q0 -35 -4 -51q-18 -94 -86 -151.5t-164 -57.5h-385q-242 0 -281 201zM377 344q0 -19 14 -39q14 -18 43 -24h15h219 q37 0 54 18t17 45v64q0 27 -4 32q-4 8 -30 23q-12 6 -39 6h-217h-17h-12q-37 -6 -43 -55v-17v-53zM385 1331q0 80 54.5 134.5t131.5 54.5q78 0 133.5 -55.5t55.5 -133.5t-55.5 -133t-133.5 -55q-76 0 -131 55t-55 133zM510 1331q0 -27 16 -45t45 -18q27 0 45.5 18.5 t18.5 44.5q0 25 -18.5 43.5t-45.5 18.5t-44 -17.5t-17 -44.5z" />
<glyph unicode="&#xe6;" horiz-adv-x="1757" d="M96 848l2 258h570q156 0 219 -109q66 109 221 109h256q150 0 230.5 -81t80.5 -237v-163l-653 -250v-27l8 -26q16 -29 64 -35h36l545 -2v-285h-557q-59 0 -97 10t-67.5 35t-35.5 31q-12 12 -25 35l-23 -33q-72 -78 -168 -78h-288q-86 0 -118 6t-73 33l-43 35 q-72 72 -71 139l-5 285q0 33 17.5 71.5t60.5 87.5q35 39 88.5 58.5t137.5 19.5h337v37q0 61 -77 76h-11h-561zM391 328q0 -36 31 -52l14 -4l6 -2h29h201h24l15 2q45 16 45 52v77l-2 15q-8 41 -68 51h-10l-193 -2h-24l-21 -4q-8 -2 -12 -4q-8 -8 -10 -11q-25 -29 -25 -53v-65 zM1022 623l364 135v12q-6 18 -12 27q-18 25 -61 24h-205l-18 -2q-53 -8 -66 -57l-2 -14v-125z" />
<glyph unicode="&#xe7;" horiz-adv-x="905" d="M96 287v557q0 223 189 258l45 4h510v-281h-379q-45 0 -61.5 -8t-22.5 -37v-35v-387q0 -29 14 -45q20 -33 64 -32h385v-281h-451q-293 0 -293 287zM324 -295l100 262h233l-141 -262h-192z" />
<glyph unicode="&#xe8;" horiz-adv-x="1097" d="M96 287v561l6 55q47 203 269 203h381l49 -4q188 -31 213 -217l2 -47v-222l-635 -239v-19q0 -68 55 -77h35h543v-281h-617q-70 0 -101.5 6t-64.5 25q-74 41 -104.5 99t-30.5 157zM303 1440l250 -6l119 -222l-215 2zM377 627l354 129v10q-8 35 -53 43l-14 2h-197l-31 -6 q-39 -10 -53 -37l-6 -29v-112z" />
<glyph unicode="&#xe9;" horiz-adv-x="1097" d="M96 287v561l6 55q47 203 269 203h381l49 -4q188 -31 213 -217l2 -47v-222l-635 -239v-19q0 -68 55 -77h35h543v-281h-617q-70 0 -101.5 6t-64.5 25q-74 41 -104.5 99t-30.5 157zM377 627l354 129v10q-8 35 -53 43l-14 2h-197l-31 -6q-39 -10 -53 -37l-6 -29v-112z M444 1210l119 222l250 4l-154 -224z" />
<glyph unicode="&#xea;" horiz-adv-x="1097" d="M96 287v561l6 55q47 203 269 203h381l49 -4q188 -31 213 -217l2 -47v-222l-635 -239v-19q0 -68 55 -77h35h543v-281h-617q-70 0 -101.5 6t-64.5 25q-74 41 -104.5 99t-30.5 157zM229 1212l148 224h330l161 -226h-209l-122 168l-103 -166h-205zM377 627l354 129v10 q-8 35 -53 43l-14 2h-197l-31 -6q-39 -10 -53 -37l-6 -29v-112z" />
<glyph unicode="&#xeb;" horiz-adv-x="1097" d="M96 287v561l6 55q47 203 269 203h381l49 -4q188 -31 213 -217l2 -47v-222l-635 -239v-19q0 -68 55 -77h35h543v-281h-617q-70 0 -101.5 6t-64.5 25q-74 41 -104.5 99t-30.5 157zM221 1360q0 63 41 108q47 47 109 48q61 0 105 -44.5t44 -105.5t-44 -105t-105 -44 q-59 0 -104.5 43t-45.5 100zM377 627l354 129v10q-8 35 -53 43l-14 2h-197l-31 -6q-39 -10 -53 -37l-6 -29v-112zM578 1360q0 66 43 108q20 23 47.5 35.5t58.5 12.5q61 0 105.5 -46.5t44.5 -105.5q0 -61 -44.5 -104t-105.5 -43q-57 0 -103 42t-46 101z" />
<glyph unicode="&#xec;" horiz-adv-x="473" d="M-10 1440l250 -6l118 -222l-215 2zM96 0v1106h281v-1106h-281z" />
<glyph unicode="&#xed;" horiz-adv-x="473" d="M96 0v1106h281v-1106h-281zM131 1210l119 222l250 4l-154 -224z" />
<glyph unicode="&#xee;" horiz-adv-x="473" d="M-84 1212l147 224h330l162 -226h-209l-123 168l-102 -166h-205zM96 0v1106h281v-1106h-281z" />
<glyph unicode="&#xef;" horiz-adv-x="473" d="M-92 1360q0 63 41 108q47 47 108 48q61 0 105.5 -44.5t44.5 -105.5t-44 -105t-106 -44q-59 0 -104 43t-45 100zM96 0v1106h281v-1106h-281zM264 1360q0 66 43 108q20 23 48 35.5t59 12.5q61 0 105 -46.5t44 -105.5q0 -61 -44 -104t-105 -43q-57 0 -103.5 42t-46.5 101z " />
<glyph unicode="&#xf0;" horiz-adv-x="1245" d="M88 299v242q0 162 68.5 234.5t214.5 72.5h452v184l-264 -151l-145 249l102 60h-344v326h621q139 0 215 -41l184 106l147 -250l-198 -114v-29v-848q-2 -72 -6 -113q-16 -125 -68 -178q-29 -31 -78 -44t-98 -13q-39 0 -55.5 2t-24.5 6h-414q-252 0 -301 231q-4 16 -6 32 t-2 36zM406 410q0 -72 77 -82h15h221q59 0 78 12q26 19 26 70v24q0 82 -90 94l-16 2h-213l-17 -2q-82 -12 -81 -84v-34z" />
<glyph unicode="&#xf1;" horiz-adv-x="1110" d="M96 0v842l4 51q16 106 80 159.5t180 53.5h390q225 0 260 -213l4 -51v-842h-281v748l-2 16q-8 61 -90 61h-174q-82 0 -90 -61v-16v-748h-281zM178 1219v178l119 28l57 15l60 6l55 -4l29 -6l22 -4l96 -25l37 -10q10 -4 43 -4l58 8l43 12l135 29v-178l-105 -25l-57 -14 l-31 -8q-37 -4 -49 -5h-24q-16 4 -25 5l-14 4l-37 8l-80 22l-18 4l-27 9q-18 4 -41 4t-64 -8l-59 -11z" />
<glyph unicode="&#xf2;" horiz-adv-x="1126" d="M96 248v610l6 49q39 199 273 199h377q231 0 274 -199q4 -16 4 -49v-610q0 -33 -4 -49q-43 -199 -274 -199h-377q-233 0 -273 199zM317 1440l250 -6l119 -222l-215 2zM377 356q-1 -32 24 -57q23 -18 39 -18h25h199h24q27 0 49 32q14 23 15 45v392q0 33 -22.5 54t-41.5 21 h-24h-199h-25q-20 0 -41.5 -21.5t-21.5 -53.5v-394z" />
<glyph unicode="&#xf3;" horiz-adv-x="1126" d="M96 248v610l6 49q39 199 273 199h377q231 0 274 -199q4 -16 4 -49v-610q0 -33 -4 -49q-43 -199 -274 -199h-377q-233 0 -273 199zM377 356q-1 -32 24 -57q23 -18 39 -18h25h199h24q27 0 49 32q14 23 15 45v392q0 33 -22.5 54t-41.5 21h-24h-199h-25q-20 0 -41.5 -21.5 t-21.5 -53.5v-394zM459 1210l119 222l249 4l-153 -224z" />
<glyph unicode="&#xf4;" horiz-adv-x="1126" d="M96 248v610l6 49q39 199 273 199h377q231 0 274 -199q4 -16 4 -49v-610q0 -33 -4 -49q-43 -199 -274 -199h-377q-233 0 -273 199zM244 1212l147 224h330l162 -226h-209l-123 168l-102 -166h-205zM377 356q-1 -32 24 -57q23 -18 39 -18h25h199h24q27 0 49 32q14 23 15 45 v392q0 33 -22.5 54t-41.5 21h-24h-199h-25q-20 0 -41.5 -21.5t-21.5 -53.5v-394z" />
<glyph unicode="&#xf5;" horiz-adv-x="1126" d="M96 248v610l6 49q39 199 273 199h377q231 0 274 -199q4 -16 4 -49v-610q0 -33 -4 -49q-43 -199 -274 -199h-377q-233 0 -273 199zM186 1219v178l119 28l57 15l60 6l55 -4l29 -6l22 -4l97 -25l37 -10q10 -4 43 -4l57 8l43 12l135 29v-178l-104 -25l-58 -14l-30 -8 q-37 -4 -50 -5h-24q-16 4 -25 5l-14 4l-37 8l-80 22l-18 4l-27 9q-18 4 -41 4t-63 -8l-60 -11zM377 356q-1 -32 24 -57q23 -18 39 -18h25h199h24q27 0 49 32q14 23 15 45v392q0 33 -22.5 54t-41.5 21h-24h-199h-25q-20 0 -41.5 -21.5t-21.5 -53.5v-394z" />
<glyph unicode="&#xf6;" horiz-adv-x="1126" d="M96 248v610l6 49q39 199 273 199h377q231 0 274 -199q4 -16 4 -49v-610q0 -33 -4 -49q-43 -199 -274 -199h-377q-233 0 -273 199zM178 1378q0 78 50.5 129.5t125.5 51.5q74 0 123 -52q27 -27 39 -57.5t12 -67.5q0 -74 -53 -122q-49 -51 -121 -52q-70 0 -123 51t-53 119z M377 356q-1 -32 24 -57q23 -18 39 -18h25h199h24q27 0 49 32q14 23 15 45v392q0 33 -22.5 54t-41.5 21h-24h-199h-25q-20 0 -41.5 -21.5t-21.5 -53.5v-394zM598 1378q0 78 50 129.5t124 51.5t125 -52q27 -27 39 -57.5t12 -67.5q0 -74 -52 -124t-124 -50t-123 51t-51 119z " />
<glyph unicode="&#xf8;" horiz-adv-x="1142" d="M96 0l66 84q-63 70 -64 166v614l6 43q45 199 277 199h375q111 0 178 -41l31 41h82l-66 -88q53 -63 53 -156v-614q0 -27 -4 -45.5t-18 -52.5q-35 -80 -93.5 -115t-164.5 -35h-375q-76 0 -104.5 6t-65.5 31l-29 -37h-84zM379 360l350 447q-14 18 -29 20h-34h-201h-29 q-45 -8 -55 -61l-2 -12v-394zM414 297q8 -8 18 -12q2 0 6 -2l29 2h197q78 0 88 61l2 14l4 375z" />
<glyph unicode="&#xf9;" horiz-adv-x="1110" d="M96 264v842h281v-748v-16q8 -61 90 -61h174q82 0 90 61l2 16v748h281v-842l-4 -51q-16 -106 -80 -159.5t-180 -53.5h-390q-225 0 -260 213zM309 1440l250 -6l119 -222l-215 2z" />
<glyph unicode="&#xfa;" horiz-adv-x="1110" d="M96 264v842h281v-748v-16q8 -61 90 -61h174q82 0 90 61l2 16v748h281v-842l-4 -51q-16 -106 -80 -159.5t-180 -53.5h-390q-225 0 -260 213zM451 1210l118 222l250 4l-153 -224z" />
<glyph unicode="&#xfb;" horiz-adv-x="1110" d="M96 264v842h281v-748v-16q8 -61 90 -61h174q82 0 90 61l2 16v748h281v-842l-4 -51q-16 -106 -80 -159.5t-180 -53.5h-390q-225 0 -260 213zM236 1212l147 224h330l161 -226h-208l-123 168l-103 -166h-204z" />
<glyph unicode="&#xfc;" horiz-adv-x="1110" d="M96 264v842h281v-748v-16q8 -61 90 -61h174q82 0 90 61l2 16v748h281v-842l-4 -51q-16 -106 -80 -159.5t-180 -53.5h-390q-225 0 -260 213zM168 1378q0 78 50 129.5t126 51.5q74 0 123 -52q27 -27 39 -57.5t12 -67.5q0 -74 -53 -122q-49 -51 -121 -52q-70 0 -123 51 t-53 119zM588 1378q0 78 50 129.5t124 51.5t125 -52q27 -27 39 -57.5t12 -67.5q0 -74 -52 -124t-124 -50t-123 51t-51 119z" />
<glyph unicode="&#xfd;" horiz-adv-x="1112" d="M96 -133h561l17 2q53 12 63 65v25v41h-362q-88 0 -137.5 24.5t-102.5 100.5q-39 57 -39 156v825h281v-737q0 -88 76 -88h198l17 2q59 10 69 67v29v727h279v-1219q0 -37 -4 -55q-27 -199 -203 -240l-57 -6h-656v281zM418 1210l119 222l249 4l-153 -224z" />
<glyph unicode="&#xff;" horiz-adv-x="1112" d="M96 -133h561l17 2q53 12 63 65v25v41h-362q-88 0 -137.5 24.5t-102.5 100.5q-39 57 -39 156v825h281v-737q0 -88 76 -88h198l17 2q59 10 69 67v29v727h279v-1219q0 -37 -4 -55q-27 -199 -203 -240l-57 -6h-656v281zM227 1360q0 63 41 108q47 47 109 48q61 0 105 -44.5 t44 -105.5t-44 -105t-105 -44q-59 0 -104.5 43t-45.5 100zM584 1360q0 66 43 108q20 23 47.5 35.5t58.5 12.5q61 0 105.5 -46.5t44.5 -105.5q0 -61 -44 -104t-106 -43q-57 0 -103 42t-46 101z" />
<glyph unicode="&#x152;" horiz-adv-x="1871" d="M96 326v825q0 115 49 188q88 135 263 136h333q154 0 234 -113l14 -23l19 27q47 59 104 84t154 25h524v-330h-549q-84 0 -90 -62l-2 -18v-31v-149h641v-293h-641v-150v-30l2 -21q6 -61 90 -61h549v-330h-524q-94 0 -151.5 24.5t-106.5 84.5l-19 26l-14 -22 q-80 -113 -234 -113h-333q-174 0 -263 137q-49 74 -49 189zM416 381q6 -29 20.5 -39t63.5 -16h18h215h17q29 2 44 7t23 13q18 16 19 35v41v631v43q-6 29 -22.5 39t-63.5 14l-17 2h-215l-18 -2q-33 -4 -37 -4q-18 -4 -31 -15q-16 -20 -16 -34v-43v-631v-41z" />
<glyph unicode="&#x153;" horiz-adv-x="1734" d="M96 283v524l4 63q18 127 89 181.5t223 54.5h235l47 -2q72 -8 115 -31.5t68 -68.5q39 82 157 98l45 4h269q160 0 232.5 -77t72.5 -245v-170l-637 -243v-19q0 -49 55 -61l21 -4h24h537v-287h-543q-139 0 -205 78l-28 39q-45 -84 -156 -111l-45 -6h-289q-135 0 -213 76 t-78 207zM371 354q2 -29 17 -47t38 -22h39h166h39q49 10 55 69l2 15v385l-2 12q-6 59 -53 70h-41h-166h-37q-51 -10 -57 -70v-12v-385v-15zM1014 621l360 133v10q-2 8 -2 12q-4 10 -16.5 26.5t-30.5 18.5h-27l-198 2l-15 -2q-59 -6 -69 -63l-2 -17v-120z" />
<glyph unicode="&#x178;" horiz-adv-x="1261" d="M-23 1475h363l278 -551l304 551h362l-496 -902v-573h-317v573zM303 1714q0 63 41 109q47 47 109 47q61 0 105 -44t44 -106q0 -61 -44 -105t-105 -44q-59 0 -104.5 43t-45.5 100zM659 1714q0 66 43 109q20 23 48 35t59 12q61 0 105 -46t44 -106q0 -61 -44 -104t-105 -43 q-57 0 -103.5 42t-46.5 101z" />
<glyph unicode="&#x2c6;" horiz-adv-x="655" d="M8 1212l148 224h329l162 -226h-209l-123 168l-102 -166h-205z" />
<glyph unicode="&#x2dc;" horiz-adv-x="770" d="M8 1219v178l119 28l57 15l60 6l55 -4l29 -6l22 -4l96 -25l37 -10q10 -4 43 -4l58 8l43 12l135 29v-178l-105 -25l-57 -14l-31 -8q-37 -4 -49 -5h-24q-16 4 -25 5l-14 4l-37 8l-80 22l-18 4l-27 9q-18 4 -41 4t-64 -8l-59 -11z" />
<glyph unicode="&#x2000;" horiz-adv-x="959" />
<glyph unicode="&#x2001;" horiz-adv-x="1919" />
<glyph unicode="&#x2002;" horiz-adv-x="959" />
<glyph unicode="&#x2003;" horiz-adv-x="1919" />
<glyph unicode="&#x2004;" horiz-adv-x="639" />
<glyph unicode="&#x2005;" horiz-adv-x="479" />
<glyph unicode="&#x2006;" horiz-adv-x="319" />
<glyph unicode="&#x2007;" horiz-adv-x="319" />
<glyph unicode="&#x2008;" horiz-adv-x="239" />
<glyph unicode="&#x2009;" horiz-adv-x="383" />
<glyph unicode="&#x200a;" horiz-adv-x="106" />
<glyph unicode="&#x2010;" horiz-adv-x="661" d="M51 520v271h559v-271h-559z" />
<glyph unicode="&#x2011;" horiz-adv-x="661" d="M51 520v271h559v-271h-559z" />
<glyph unicode="&#x2012;" horiz-adv-x="661" d="M51 520v271h559v-271h-559z" />
<glyph unicode="&#x2013;" horiz-adv-x="1243" d="M70 594v289h1104v-289h-1104z" />
<glyph unicode="&#x2014;" horiz-adv-x="1060" d="M51 535v274h959v-274h-959z" />
<glyph unicode="&#x2018;" horiz-adv-x="458" d="M51 1102q0 31 4 45l19 49l133 279h201l-103 -218q100 -51 101 -165q0 -74 -51.5 -126.5t-125.5 -52.5q-72 0 -125 55.5t-53 133.5z" />
<glyph unicode="&#x2019;" horiz-adv-x="458" d="M51 915l103 218q-100 51 -101 163q0 78 54.5 128.5t121.5 50.5q72 0 125.5 -53.5t53.5 -133.5q0 -31 -5 -45l-18 -49l-133 -279h-201z" />
<glyph unicode="&#x201a;" horiz-adv-x="458" d="M51 -219l103 219q-47 23 -74 66t-27 98q0 78 54.5 128t121.5 50q72 0 125.5 -53t53.5 -135q0 -29 -5 -43l-18 -50l-133 -278z" />
<glyph unicode="&#x201c;" horiz-adv-x="868" d="M51 1102q0 31 4 45l19 49l133 279h201l-103 -218q100 -51 101 -165q0 -74 -51.5 -126.5t-125.5 -52.5q-72 0 -125 55.5t-53 133.5zM463 1100q0 31 3 45t7 26q2 11 10 25l135 279h199l-102 -218q102 -49 102 -165q0 -70 -53 -127q-27 -27 -57.5 -39.5t-67.5 -12.5 q-70 0 -123 53.5t-53 133.5z" />
<glyph unicode="&#x201d;" horiz-adv-x="868" d="M51 915l103 218q-100 51 -101 163q0 78 54.5 128.5t121.5 50.5q72 0 125.5 -53.5t53.5 -133.5q0 -31 -5 -45l-18 -49l-133 -279h-201zM461 915l104 218q-102 49 -102 163q0 74 54 126.5t124 52.5q74 0 125 -53.5t51 -133.5q0 -31 -4 -45l-16 -49l-135 -279h-201z" />
<glyph unicode="&#x201e;" horiz-adv-x="868" d="M51 -219l103 219q-47 23 -74 66t-27 98q0 78 54.5 128t121.5 50q72 0 125.5 -53t53.5 -135q0 -29 -5 -43l-18 -50l-133 -278zM461 -219l104 219q-49 23 -75.5 66t-26.5 98q0 74 54 126t124 52q74 0 125 -53t51 -135q0 -29 -4 -43l-16 -50l-135 -278z" />
<glyph unicode="&#x2022;" horiz-adv-x="724" d="M78 737q0 119 83 202t201 83q123 0 205 -84t82 -201t-82 -200.5t-205 -83.5q-119 0 -201.5 82.5t-82.5 201.5z" />
<glyph unicode="&#x2026;" horiz-adv-x="1503" d="M78 147q0 74 51 123t121 49t121 -50t51 -122t-50 -122t-122 -50t-121 52q-51 46 -51 120zM580 147q0 72 52 122t120 50q70 0 121 -50t51 -122t-50.5 -122t-121.5 -50q-72 0 -122 50t-50 122zM1081 147q0 72 50.5 122t121.5 50q72 0 122 -50t50 -122t-50 -122t-122 -50 q-74 0 -123 49t-49 123z" />
<glyph unicode="&#x202f;" horiz-adv-x="383" />
<glyph unicode="&#x2039;" horiz-adv-x="587" d="M51 555q0 43 41 102l250 361h193l-322 -461l324 -463h-203l-236 336q-27 37 -37 65.5t-10 59.5z" />
<glyph unicode="&#x203a;" horiz-adv-x="587" d="M51 1018h203l235 -336q27 -37 37.5 -65.5t10.5 -59.5q0 -43 -41 -102l-250 -361h-193l320 461z" />
<glyph unicode="&#x205f;" horiz-adv-x="479" />
<glyph unicode="&#x25fc;" horiz-adv-x="1105" d="M0 0v1106h1106v-1106h-1106z" />
</font>
</defs>
</svg>
